<?xml version="1.0" encoding="UTF-8"?>
<svg version="1.1" xmlns="http://www.w3.org/2000/svg" width="512" height="512">
<path d="M0 0 C1.14020426 -0.00935994 1.14020426 -0.00935994 2.30344296 -0.01890898 C4.8524311 -0.0348734 7.40046753 -0.02222178 9.94946289 -0.00964355 C11.77605752 -0.01506316 13.60264778 -0.02218491 15.42922974 -0.03088379 C20.39202184 -0.04913932 25.35448181 -0.0420404 30.31727982 -0.02936745 C35.50710201 -0.01925134 40.69689546 -0.02862926 45.88671875 -0.03491211 C54.60267247 -0.04219256 63.31849068 -0.03259035 72.03442383 -0.0135498 C82.11606296 0.00821967 92.19737853 0.00116858 102.27900982 -0.02085543 C110.92964037 -0.03899807 119.58017342 -0.0415733 128.23081684 -0.03110075 C133.39977129 -0.02485958 138.56857359 -0.02404733 143.73751831 -0.0372467 C148.59673102 -0.04878804 153.45552595 -0.04081089 158.31469345 -0.01766968 C160.09972311 -0.0123734 161.88478784 -0.01391203 163.66980362 -0.02272034 C166.1034257 -0.0336235 168.53570235 -0.01997691 170.96923828 0 C172.03324309 -0.01338433 172.03324309 -0.01338433 173.11874294 -0.02703905 C176.44207801 0.02601451 178.22472207 0.31638303 180.92991638 2.31018829 C183.18461514 5.49745723 182.91861368 8.51435332 182.73461914 12.25793457 C182.71657227 12.95531738 182.69852539 13.6527002 182.67993164 14.37121582 C182.63300468 16.08404996 182.56126519 17.79617281 182.48461914 19.50793457 C184.22364502 19.46865845 184.22364502 19.46865845 185.99780273 19.42858887 C190.34005075 19.3374082 194.68221592 19.28044112 199.02514648 19.23327637 C200.89703651 19.20828559 202.76883049 19.17428084 204.64038086 19.1307373 C226.19889885 18.64207756 226.19889885 18.64207756 234.36694336 26.26452637 C241.84771193 34.04945805 241.92072018 42.09609247 241.87902832 52.41792297 C241.88392032 53.84402324 241.89011156 55.27011954 241.89748621 56.69620913 C241.91386992 60.6060919 241.91157103 64.51577282 241.90611124 68.4256779 C241.90343909 72.64598789 241.91797636 76.86624432 241.9302063 81.08653259 C241.951255 89.35140342 241.95580146 97.61620408 241.95401841 105.88109855 C241.95271045 112.5999625 241.95651669 119.31880458 241.96394348 126.03766441 C241.9660427 127.97352733 241.9681403 129.90939025 241.9702363 131.84525317 C241.97180159 133.29059085 241.97180159 133.29059085 241.97339851 134.76512726 C241.99229878 152.9866006 241.99125139 171.20803368 241.98442918 189.42951276 C241.97885447 206.09308053 241.99967647 222.75649451 242.03278965 239.42002634 C242.06653652 256.53547731 242.0816937 273.65085463 242.07707262 290.76633948 C242.07482886 300.37321702 242.08005734 309.97995244 242.10496521 319.58680153 C242.12599125 327.76602498 242.12955746 335.94502841 242.11066562 344.12426094 C242.1015156 348.29571971 242.10034194 352.46676836 242.12102127 356.63819504 C242.13976266 360.46105367 242.13519319 364.28316722 242.11247545 368.10599776 C242.10632663 370.13530257 242.12465647 372.16463663 242.14401197 374.19385844 C242.06063096 382.81670107 240.72512075 389.90101385 234.72923422 396.41500121 C228.15154716 402.63049761 221.50379958 403.95454777 212.7592926 403.86869812 C211.79776038 403.87126139 210.83622815 403.87382467 209.84555858 403.87646562 C206.63335772 403.88139515 203.42163001 403.86492401 200.20947266 403.84851074 C197.90305085 403.84766429 195.59662824 403.84813996 193.29020691 403.84983826 C187.03455169 403.85069893 180.77906907 403.83306127 174.52345395 403.81211638 C167.98382012 403.79336174 161.44418233 403.79160009 154.90452576 403.78804016 C143.92997242 403.78027517 132.95547953 403.76103726 121.98095703 403.73425293 C110.67920243 403.70669871 99.37746502 403.68547181 88.07568359 403.67272949 C87.37856569 403.67194132 86.68144779 403.67115315 85.96320511 403.6703411 C82.46582698 403.66642587 78.96844874 403.66263477 75.47107041 403.65890539 C46.47554552 403.62782589 17.48008318 403.5747808 -11.51538086 403.50793457 C-11.50649841 404.22790115 -11.49761597 404.94786774 -11.48846436 405.68965149 C-11.40833525 412.4727677 -11.34742512 419.25581322 -11.30813217 426.03928089 C-11.28725186 429.52684013 -11.25892768 433.01400851 -11.21362305 436.50134277 C-11.16187024 440.51008874 -11.1424395 444.51842379 -11.12475586 448.52746582 C-11.10411072 449.78066116 -11.08346558 451.03385651 -11.06219482 452.32502747 C-11.0618927 453.48600449 -11.06159058 454.64698151 -11.0612793 455.84313965 C-11.05239685 456.86684158 -11.0435144 457.89054352 -11.03436279 458.94526672 C-11.51538086 461.50793457 -11.51538086 461.50793457 -13.28822279 463.33838904 C-15.6464716 464.57677414 -16.96606102 464.88361735 -19.60401154 464.88545799 C-20.41417331 464.89328123 -21.22433509 464.90110448 -22.05904722 464.90916479 C-22.94347643 464.90247262 -23.82790565 464.89578046 -24.73913574 464.8888855 C-25.68303177 464.89356547 -26.6269278 464.89824544 -27.59942675 464.90306723 C-30.77012104 464.91505697 -33.94038629 464.90554434 -37.11108398 464.89611816 C-39.38101962 464.90018209 -41.65095328 464.90552296 -43.92088318 464.91204834 C-50.09225482 464.92574897 -56.26347636 464.9204119 -62.43485069 464.91091108 C-68.88589261 464.90332873 -75.33692146 464.91035613 -81.78796387 464.91506958 C-93.3168909 464.92088137 -104.84574103 464.91154404 -116.37465602 464.89629157 C-126.82963857 464.88288814 -137.2845212 464.88521617 -147.73950195 464.89904785 C-159.87805511 464.91509932 -172.01652982 464.9210801 -184.15509558 464.91221106 C-190.58157597 464.90752804 -197.0079875 464.90692698 -203.4344635 464.91682053 C-209.47550896 464.92547066 -215.51636525 464.91950393 -221.55739021 464.90213776 C-223.77781421 464.89816247 -225.99825406 464.89932467 -228.2186718 464.90592575 C-231.24320662 464.91409008 -234.26713038 464.90388138 -237.29162598 464.8888855 C-238.17605519 464.89557766 -239.0604844 464.90226983 -239.9717145 464.90916479 C-243.52746005 464.8748291 -245.88301709 464.84333489 -249.06011963 463.15822697 C-251.27964376 460.6412467 -251.02363232 458.60981942 -251.03295898 455.29919434 C-251.04556763 454.0167836 -251.05817627 452.73437286 -251.07116699 451.4131012 C-251.06400054 450.00850887 -251.05579491 448.60392153 -251.04663086 447.19934082 C-251.04932769 445.75263712 -251.05321171 444.30593519 -251.05822754 442.85923767 C-251.06413062 439.82016827 -251.05554565 436.78156851 -251.03686523 433.74255371 C-251.01425739 429.87933695 -251.02707565 426.017243 -251.05115509 422.15406895 C-251.06574922 419.16051598 -251.06094253 416.16721995 -251.05064392 413.17365837 C-251.04800438 411.75174765 -251.05114699 410.32981238 -251.06056213 408.90793037 C-251.14037758 393.44404635 -247.36934157 382.39531117 -237.14038086 370.82043457 C-230.01445719 364.54283514 -223.22748934 360.07128438 -214.42553711 356.44934082 C-213.39980087 356.01532455 -212.37406464 355.58130829 -211.31724548 355.13414001 C-209.16938551 354.22810322 -207.01882781 353.32843714 -204.86572266 352.43493652 C-201.55754798 351.06199613 -198.25765449 349.67053944 -194.95874023 348.2755127 C-192.86478817 347.39488706 -190.77040235 346.51529196 -188.67553711 345.63684082 C-187.19126976 345.01356651 -187.19126976 345.01356651 -185.67701721 344.37770081 C-184.76524216 343.99987961 -183.8534671 343.62205841 -182.9140625 343.23278809 C-182.11069962 342.89860367 -181.30733673 342.56441925 -180.47962952 342.22010803 C-178.51538086 341.50793457 -178.51538086 341.50793457 -176.51538086 341.50793457 C-176.51538086 332.59793457 -176.51538086 323.68793457 -176.51538086 314.50793457 C-178.16538086 313.84793457 -179.81538086 313.18793457 -181.51538086 312.50793457 C-184.34783544 310.71932454 -186.91496328 308.61650434 -189.51538086 306.50793457 C-190.30299805 305.88016113 -191.09061523 305.2523877 -191.90209961 304.60559082 C-209.391081 289.86213241 -219.42899336 268.11046584 -221.51538086 245.50793457 C-221.65258525 241.16770222 -221.6432411 236.84807924 -221.51538086 232.50793457 C-222.09288086 232.40609863 -222.67038086 232.3042627 -223.26538086 232.19934082 C-228.13434318 230.70314927 -232.14638468 226.60628198 -234.88647461 222.40637207 C-238.48510421 215.36729439 -239.82728627 208.07388619 -237.98413086 200.25402832 C-236.51848205 196.05621896 -234.69114525 192.68369896 -231.51538086 189.50793457 C-230.32968506 188.97321533 -229.14398926 188.43849609 -227.92236328 187.88757324 C-226.02323824 186.90117487 -226.02323824 186.90117487 -224.51538086 185.50793457 C-223.83414933 182.39197228 -223.64674216 180.29158541 -223.75366211 177.18371582 C-223.74945503 175.95421455 -223.74945503 175.95421455 -223.74516296 174.69987488 C-223.73988764 172.0720657 -223.78032167 169.4477778 -223.82788086 166.82043457 C-224.02704037 150.70979861 -223.24030291 135.38886626 -215.82788086 120.69543457 C-215.48466797 119.99587646 -215.14145508 119.29631836 -214.7878418 118.57556152 C-206.98879646 103.20820141 -194.65283018 89.80155117 -179.51538086 81.50793457 C-178.55889648 80.97555176 -177.60241211 80.44316895 -176.61694336 79.89465332 C-155.10279569 68.51643612 -130.72393212 66.65564439 -107.51538086 73.63293457 C-98.23910991 76.56563879 -89.59861152 81.11911413 -81.51538086 86.50793457 C-81.51395584 85.92879303 -81.51253082 85.34965149 -81.51106262 84.75296021 C-81.49126261 78.68464765 -81.43677026 72.61732711 -81.36279297 66.54943848 C-81.33970192 64.28974544 -81.3252383 62.02994613 -81.31982422 59.7701416 C-81.31046976 56.5075933 -81.2693355 53.24669611 -81.22241211 49.98449707 C-81.22634476 48.98616852 -81.2302774 47.98783997 -81.23432922 46.95925903 C-81.07486495 39.16394567 -79.12344916 32.45112136 -73.7603302 26.58987427 C-66.52751588 19.80581941 -59.43850666 19.07522781 -49.89428711 19.21496582 C-48.7943895 19.21921066 -47.69449188 19.22345551 -46.56126404 19.22782898 C-43.06654841 19.24455055 -39.57242065 19.28219162 -36.07788086 19.32043457 C-33.70093609 19.33548979 -31.32398224 19.34917673 -28.94702148 19.3614502 C-23.13627583 19.39443272 -17.32587036 19.44456727 -11.51538086 19.50793457 C-11.56178711 18.47152832 -11.60819336 17.43512207 -11.65600586 16.36730957 C-11.69353361 14.99754678 -11.7299327 13.62775275 -11.76538086 12.25793457 C-11.79889648 11.57602051 -11.83241211 10.89410645 -11.86694336 10.19152832 C-11.92911839 6.98951402 -11.83384413 4.95811803 -9.9606781 2.31018829 C-6.69062796 -0.09993181 -3.90901584 -0.0491723 0 0 Z M-86.51538086 312.50793457 C-87.20202069 315.59164231 -87.20202069 315.59164231 -87.00366211 319.02355957 C-86.98754883 320.2739502 -86.97143555 321.52434082 -86.95483398 322.81262207 C-86.91293945 324.1145752 -86.87104492 325.41652832 -86.82788086 326.75793457 C-86.80532227 328.07535645 -86.78276367 329.39277832 -86.75952148 330.75012207 C-86.7005768 334.00386861 -86.61833139 337.25533128 -86.51538086 340.50793457 C-84.53538086 341.49793457 -82.55538086 342.48793457 -80.51538086 343.50793457 C-80.51538086 331.95793457 -80.51538086 320.40793457 -80.51538086 308.50793457 C-83.06272396 308.50793457 -84.85075168 310.88430773 -86.51538086 312.50793457 Z " fill="#E4F4FC" transform="translate(260.515380859375,23.4920654296875)"/>
<path d="M0 0 C1.14020426 -0.00935994 1.14020426 -0.00935994 2.30344296 -0.01890898 C4.8524311 -0.0348734 7.40046753 -0.02222178 9.94946289 -0.00964355 C11.77605752 -0.01506316 13.60264778 -0.02218491 15.42922974 -0.03088379 C20.39202184 -0.04913932 25.35448181 -0.0420404 30.31727982 -0.02936745 C35.50710201 -0.01925134 40.69689546 -0.02862926 45.88671875 -0.03491211 C54.60267247 -0.04219256 63.31849068 -0.03259035 72.03442383 -0.0135498 C82.11606296 0.00821967 92.19737853 0.00116858 102.27900982 -0.02085543 C110.92964037 -0.03899807 119.58017342 -0.0415733 128.23081684 -0.03110075 C133.39977129 -0.02485958 138.56857359 -0.02404733 143.73751831 -0.0372467 C148.59673102 -0.04878804 153.45552595 -0.04081089 158.31469345 -0.01766968 C160.09972311 -0.0123734 161.88478784 -0.01391203 163.66980362 -0.02272034 C166.1034257 -0.0336235 168.53570235 -0.01997691 170.96923828 0 C172.03324309 -0.01338433 172.03324309 -0.01338433 173.11874294 -0.02703905 C176.44207801 0.02601451 178.22472207 0.31638303 180.92991638 2.31018829 C183.18461514 5.49745723 182.91861368 8.51435332 182.73461914 12.25793457 C182.71657227 12.95531738 182.69852539 13.6527002 182.67993164 14.37121582 C182.63300468 16.08404996 182.56126519 17.79617281 182.48461914 19.50793457 C184.22364502 19.46865845 184.22364502 19.46865845 185.99780273 19.42858887 C190.34005075 19.3374082 194.68221592 19.28044112 199.02514648 19.23327637 C200.89703651 19.20828559 202.76883049 19.17428084 204.64038086 19.1307373 C226.19889885 18.64207756 226.19889885 18.64207756 234.36694336 26.26452637 C241.84771193 34.04945805 241.92072018 42.09609247 241.87902832 52.41792297 C241.88392032 53.84402324 241.89011156 55.27011954 241.89748621 56.69620913 C241.91386992 60.6060919 241.91157103 64.51577282 241.90611124 68.4256779 C241.90343909 72.64598789 241.91797636 76.86624432 241.9302063 81.08653259 C241.951255 89.35140342 241.95580146 97.61620408 241.95401841 105.88109855 C241.95271045 112.5999625 241.95651669 119.31880458 241.96394348 126.03766441 C241.9660427 127.97352733 241.9681403 129.90939025 241.9702363 131.84525317 C241.97180159 133.29059085 241.97180159 133.29059085 241.97339851 134.76512726 C241.99229878 152.9866006 241.99125139 171.20803368 241.98442918 189.42951276 C241.97885447 206.09308053 241.99967647 222.75649451 242.03278965 239.42002634 C242.06653652 256.53547731 242.0816937 273.65085463 242.07707262 290.76633948 C242.07482886 300.37321702 242.08005734 309.97995244 242.10496521 319.58680153 C242.12599125 327.76602498 242.12955746 335.94502841 242.11066562 344.12426094 C242.1015156 348.29571971 242.10034194 352.46676836 242.12102127 356.63819504 C242.13976266 360.46105367 242.13519319 364.28316722 242.11247545 368.10599776 C242.10632663 370.13530257 242.12465647 372.16463663 242.14401197 374.19385844 C242.06063096 382.81670107 240.72512075 389.90101385 234.72923422 396.41500121 C228.15154716 402.63049761 221.50379958 403.95454777 212.7592926 403.86869812 C211.79776038 403.87126139 210.83622815 403.87382467 209.84555858 403.87646562 C206.63335772 403.88139515 203.42163001 403.86492401 200.20947266 403.84851074 C197.90305085 403.84766429 195.59662824 403.84813996 193.29020691 403.84983826 C187.03455169 403.85069893 180.77906907 403.83306127 174.52345395 403.81211638 C167.98382012 403.79336174 161.44418233 403.79160009 154.90452576 403.78804016 C143.92997242 403.78027517 132.95547953 403.76103726 121.98095703 403.73425293 C110.67920243 403.70669871 99.37746502 403.68547181 88.07568359 403.67272949 C87.37856569 403.67194132 86.68144779 403.67115315 85.96320511 403.6703411 C82.46582698 403.66642587 78.96844874 403.66263477 75.47107041 403.65890539 C46.47554552 403.62782589 17.48008318 403.5747808 -11.51538086 403.50793457 C-11.50649841 404.22790115 -11.49761597 404.94786774 -11.48846436 405.68965149 C-11.40833525 412.4727677 -11.34742512 419.25581322 -11.30813217 426.03928089 C-11.28725186 429.52684013 -11.25892768 433.01400851 -11.21362305 436.50134277 C-11.16187024 440.51008874 -11.1424395 444.51842379 -11.12475586 448.52746582 C-11.10411072 449.78066116 -11.08346558 451.03385651 -11.06219482 452.32502747 C-11.0618927 453.48600449 -11.06159058 454.64698151 -11.0612793 455.84313965 C-11.05239685 456.86684158 -11.0435144 457.89054352 -11.03436279 458.94526672 C-11.51538086 461.50793457 -11.51538086 461.50793457 -13.28822279 463.33838904 C-15.6464716 464.57677414 -16.96606102 464.88361735 -19.60401154 464.88545799 C-20.41417331 464.89328123 -21.22433509 464.90110448 -22.05904722 464.90916479 C-22.94347643 464.90247262 -23.82790565 464.89578046 -24.73913574 464.8888855 C-25.68303177 464.89356547 -26.6269278 464.89824544 -27.59942675 464.90306723 C-30.77012104 464.91505697 -33.94038629 464.90554434 -37.11108398 464.89611816 C-39.38101962 464.90018209 -41.65095328 464.90552296 -43.92088318 464.91204834 C-50.09225482 464.92574897 -56.26347636 464.9204119 -62.43485069 464.91091108 C-68.88589261 464.90332873 -75.33692146 464.91035613 -81.78796387 464.91506958 C-93.3168909 464.92088137 -104.84574103 464.91154404 -116.37465602 464.89629157 C-126.82963857 464.88288814 -137.2845212 464.88521617 -147.73950195 464.89904785 C-159.87805511 464.91509932 -172.01652982 464.9210801 -184.15509558 464.91221106 C-190.58157597 464.90752804 -197.0079875 464.90692698 -203.4344635 464.91682053 C-209.47550896 464.92547066 -215.51636525 464.91950393 -221.55739021 464.90213776 C-223.77781421 464.89816247 -225.99825406 464.89932467 -228.2186718 464.90592575 C-231.24320662 464.91409008 -234.26713038 464.90388138 -237.29162598 464.8888855 C-238.17605519 464.89557766 -239.0604844 464.90226983 -239.9717145 464.90916479 C-243.52746005 464.8748291 -245.88301709 464.84333489 -249.06011963 463.15822697 C-251.27964376 460.6412467 -251.02363232 458.60981942 -251.03295898 455.29919434 C-251.04556763 454.0167836 -251.05817627 452.73437286 -251.07116699 451.4131012 C-251.06400054 450.00850887 -251.05579491 448.60392153 -251.04663086 447.19934082 C-251.04932769 445.75263712 -251.05321171 444.30593519 -251.05822754 442.85923767 C-251.06413062 439.82016827 -251.05554565 436.78156851 -251.03686523 433.74255371 C-251.01425739 429.87933695 -251.02707565 426.017243 -251.05115509 422.15406895 C-251.06574922 419.16051598 -251.06094253 416.16721995 -251.05064392 413.17365837 C-251.04800438 411.75174765 -251.05114699 410.32981238 -251.06056213 408.90793037 C-251.14037758 393.44404635 -247.36934157 382.39531117 -237.14038086 370.82043457 C-230.01445719 364.54283514 -223.22748934 360.07128438 -214.42553711 356.44934082 C-213.39980087 356.01532455 -212.37406464 355.58130829 -211.31724548 355.13414001 C-209.16938551 354.22810322 -207.01882781 353.32843714 -204.86572266 352.43493652 C-201.55754798 351.06199613 -198.25765449 349.67053944 -194.95874023 348.2755127 C-192.86478817 347.39488706 -190.77040235 346.51529196 -188.67553711 345.63684082 C-187.19126976 345.01356651 -187.19126976 345.01356651 -185.67701721 344.37770081 C-184.76524216 343.99987961 -183.8534671 343.62205841 -182.9140625 343.23278809 C-182.11069962 342.89860367 -181.30733673 342.56441925 -180.47962952 342.22010803 C-178.51538086 341.50793457 -178.51538086 341.50793457 -176.51538086 341.50793457 C-176.51538086 332.59793457 -176.51538086 323.68793457 -176.51538086 314.50793457 C-178.16538086 313.84793457 -179.81538086 313.18793457 -181.51538086 312.50793457 C-184.34783544 310.71932454 -186.91496328 308.61650434 -189.51538086 306.50793457 C-190.30299805 305.88016113 -191.09061523 305.2523877 -191.90209961 304.60559082 C-209.391081 289.86213241 -219.42899336 268.11046584 -221.51538086 245.50793457 C-221.65258525 241.16770222 -221.6432411 236.84807924 -221.51538086 232.50793457 C-222.09288086 232.40609863 -222.67038086 232.3042627 -223.26538086 232.19934082 C-228.13434318 230.70314927 -232.14638468 226.60628198 -234.88647461 222.40637207 C-238.48510421 215.36729439 -239.82728627 208.07388619 -237.98413086 200.25402832 C-236.51848205 196.05621896 -234.69114525 192.68369896 -231.51538086 189.50793457 C-230.32968506 188.97321533 -229.14398926 188.43849609 -227.92236328 187.88757324 C-226.02323824 186.90117487 -226.02323824 186.90117487 -224.51538086 185.50793457 C-223.83414933 182.39197228 -223.64674216 180.29158541 -223.75366211 177.18371582 C-223.74945503 175.95421455 -223.74945503 175.95421455 -223.74516296 174.69987488 C-223.73988764 172.0720657 -223.78032167 169.4477778 -223.82788086 166.82043457 C-224.02704037 150.70979861 -223.24030291 135.38886626 -215.82788086 120.69543457 C-215.48466797 119.99587646 -215.14145508 119.29631836 -214.7878418 118.57556152 C-206.98879646 103.20820141 -194.65283018 89.80155117 -179.51538086 81.50793457 C-178.55889648 80.97555176 -177.60241211 80.44316895 -176.61694336 79.89465332 C-155.10279569 68.51643612 -130.72393212 66.65564439 -107.51538086 73.63293457 C-98.23910991 76.56563879 -89.59861152 81.11911413 -81.51538086 86.50793457 C-81.51395584 85.92879303 -81.51253082 85.34965149 -81.51106262 84.75296021 C-81.49126261 78.68464765 -81.43677026 72.61732711 -81.36279297 66.54943848 C-81.33970192 64.28974544 -81.3252383 62.02994613 -81.31982422 59.7701416 C-81.31046976 56.5075933 -81.2693355 53.24669611 -81.22241211 49.98449707 C-81.22634476 48.98616852 -81.2302774 47.98783997 -81.23432922 46.95925903 C-81.07486495 39.16394567 -79.12344916 32.45112136 -73.7603302 26.58987427 C-66.52751588 19.80581941 -59.43850666 19.07522781 -49.89428711 19.21496582 C-48.7943895 19.21921066 -47.69449188 19.22345551 -46.56126404 19.22782898 C-43.06654841 19.24455055 -39.57242065 19.28219162 -36.07788086 19.32043457 C-33.70093609 19.33548979 -31.32398224 19.34917673 -28.94702148 19.3614502 C-23.13627583 19.39443272 -17.32587036 19.44456727 -11.51538086 19.50793457 C-11.56178711 18.47152832 -11.60819336 17.43512207 -11.65600586 16.36730957 C-11.69353361 14.99754678 -11.7299327 13.62775275 -11.76538086 12.25793457 C-11.79889648 11.57602051 -11.83241211 10.89410645 -11.86694336 10.19152832 C-11.92911839 6.98951402 -11.83384413 4.95811803 -9.9606781 2.31018829 C-6.69062796 -0.09993181 -3.90901584 -0.0491723 0 0 Z M-66.84619141 37.94104004 C-69.39525304 43.38813532 -69.18547677 48.63060352 -69.22241211 54.57824707 C-69.23809738 55.85086395 -69.25378265 57.12348083 -69.26994324 58.43466187 C-69.29455409 61.12665079 -69.3098082 63.81698418 -69.31152344 66.50891113 C-69.31566021 69.24883556 -69.35025782 71.9855533 -69.4140625 74.72473145 C-70.54666414 92.24244843 -70.54666414 92.24244843 -64.23413086 107.88293457 C-62.68955344 109.45299302 -61.12003657 110.99933158 -59.51538086 112.50793457 C-57.84230857 115.02972488 -56.50555004 117.6546005 -55.20288086 120.38293457 C-54.87731201 121.04857422 -54.55174316 121.71421387 -54.21630859 122.40002441 C-49.01351093 133.40529072 -46.3156081 144.80331068 -46.55053711 156.97668457 C-46.5565637 158.61599964 -46.55973199 160.25532727 -46.56030273 161.89465332 C-46.56202386 164.45715916 -46.57805793 167.01501874 -46.64208984 169.57678223 C-47.27735104 179.43901278 -47.27735104 179.43901278 -43.30810547 187.88806152 C-40.67629616 189.51633783 -40.67629616 189.51633783 -37.91577148 190.5345459 C-34.24688323 192.02232636 -33.27883482 194.05769856 -31.51538086 197.50793457 C-28.96100383 205.17106566 -29.7822422 213.98598052 -33.10913086 221.28137207 C-36.36492356 226.43637718 -41.03603005 229.96395027 -46.51538086 232.50793457 C-46.54116211 233.62168457 -46.56694336 234.73543457 -46.59350586 235.88293457 C-47.28476363 256.82873859 -52.71156532 275.55448158 -65.51538086 292.50793457 C-66.04114212 292.94370316 -66.56690338 293.37947174 -67.1085968 293.82844543 C-69.0789734 296.18077952 -68.87722357 297.76442726 -68.85595703 300.80554199 C-68.85573044 301.886436 -68.85550385 302.96733002 -68.85527039 304.08097839 C-68.83978653 305.24667862 -68.82430267 306.41237885 -68.80834961 307.61340332 C-68.80410477 308.8077449 -68.79985992 310.00208649 -68.79548645 311.23262024 C-68.77867045 315.05378601 -68.74101179 318.87442773 -68.70288086 322.69543457 C-68.68783785 325.28331759 -68.67414878 327.87120886 -68.66186523 330.45910645 C-68.62875731 336.80889515 -68.57852847 343.15837743 -68.51538086 349.50793457 C-67.65372314 349.87032227 -66.79206543 350.23270996 -65.90429688 350.6060791 C-62.66377296 351.97419874 -59.42703139 353.35062078 -56.19238281 354.73254395 C-54.80022315 355.32534903 -53.40669593 355.91495438 -52.01171875 356.50109863 C-35.35826555 363.50427307 -23.79215935 370.93099686 -15.51538086 387.50793457 C-15.15730637 388.83483756 -14.81883168 390.16748446 -14.51538086 391.50793457 C15.06529187 391.57637139 44.64596086 391.6294631 74.22669614 391.66113056 C77.7189206 391.66488268 81.21114491 391.66876565 84.70336914 391.67272949 C85.74622821 391.67390989 85.74622821 391.67390989 86.81015514 391.67511413 C98.06758198 391.68816828 109.32496286 391.71182217 120.58236243 391.73939296 C132.13337781 391.76744692 143.68436084 391.78388625 155.23540962 391.79020005 C161.72351521 391.79411496 168.21151656 391.80333201 174.69958878 391.82512474 C180.80457698 391.84546488 186.90941785 391.85177332 193.01443672 391.84725761 C195.25660439 391.84808392 197.49877691 391.85406416 199.7409153 391.86555099 C202.79996222 391.88045615 205.85845141 391.87689513 208.91751099 391.86869812 C209.80662489 391.87743664 210.69573879 391.88617517 211.61179554 391.8951785 C216.6544952 391.8586054 220.11754354 391.30952799 224.48461914 388.50793457 C228.61623083 384.04132734 229.60839563 380.8492751 229.61884022 374.86126232 C229.62552698 373.08654624 229.62552698 373.08654624 229.63234884 371.27597731 C229.63216447 369.96977708 229.63198011 368.66357685 229.63179016 367.3177948 C229.63508891 365.92117342 229.6388145 364.524553 229.64293164 363.1279338 C229.65295829 359.28116056 229.65666949 355.43440293 229.65932095 351.58761847 C229.66322196 347.44231669 229.67280034 343.29702729 229.68153381 339.1517334 C229.70130256 329.13729918 229.71136433 319.12286395 229.7202616 309.1084151 C229.72464328 304.39468728 229.73001035 299.68096059 229.73525047 294.96723366 C229.75226212 279.30218457 229.76675739 263.63713619 229.77399921 247.97207928 C229.77590916 243.90631293 229.77782949 239.8405466 229.77978516 235.77478027 C229.7802689 234.76423223 229.78075264 233.75368419 229.78125104 232.71251348 C229.78955549 216.33377789 229.81489969 199.95511524 229.84736583 183.57641151 C229.88041179 166.76848164 229.89844569 149.96058887 229.90164346 133.15262634 C229.90381069 123.71238388 229.91259064 114.27224782 229.93810463 104.83203697 C229.95977789 96.79427054 229.96787867 88.75663636 229.95813785 80.71884402 C229.9535835 76.6168117 229.95554496 72.51505245 229.97489929 68.41305733 C229.99246303 64.65819863 229.99158906 60.90381356 229.976002 57.14895032 C229.97248453 55.14631967 229.98870269 53.14368444 230.00560647 51.14112204 C229.9750905 42.51197121 229.9750905 42.51197121 225.48461914 35.50793457 C220.63168665 31.29476649 216.93252081 30.95478246 210.80493164 31.11730957 C209.99216766 31.12296936 209.17940369 31.12862915 208.3420105 31.13446045 C205.76392969 31.15672619 203.18727483 31.20690142 200.60961914 31.25793457 C198.85443098 31.27801237 197.09922088 31.2962609 195.34399414 31.31262207 C191.05699226 31.35655845 186.77104687 31.42551546 182.48461914 31.50793457 C182.4240332 32.33937988 182.36344727 33.1708252 182.30102539 34.02746582 C182.21723633 35.11414551 182.13344727 36.2008252 182.04711914 37.32043457 C181.92530273 38.93885254 181.92530273 38.93885254 181.80102539 40.58996582 C181.48461914 43.50793457 181.48461914 43.50793457 180.48461914 46.50793457 C156.00701403 46.55459833 131.52941556 46.58989577 107.05177498 46.61155891 C95.68708944 46.6218836 84.3224315 46.63596664 72.95776367 46.65881348 C63.05550617 46.67871093 53.15326864 46.69164232 43.2509917 46.69611156 C38.00494024 46.69872514 32.75894594 46.70489278 27.51291275 46.71939468 C22.5800224 46.73292109 17.64721302 46.73716728 12.71430588 46.73414993 C10.89940196 46.73470232 9.08449548 46.73870908 7.26960754 46.74634552 C4.8004157 46.75622958 2.33153354 46.75392761 -0.13766479 46.7484436 C-1.22617369 46.75718213 -1.22617369 46.75718213 -2.33667266 46.76609719 C-7.28713844 46.73617699 -7.28713844 46.73617699 -9.51538086 44.50793457 C-9.92944336 41.46887207 -9.92944336 41.46887207 -10.14038086 37.88293457 C-10.21514648 36.69441895 -10.28991211 35.50590332 -10.36694336 34.28137207 C-10.41592773 33.3661377 -10.46491211 32.45090332 -10.51538086 31.50793457 C-17.24132352 31.40633527 -23.96706754 31.33638546 -30.69360352 31.28820801 C-32.98078812 31.26811941 -35.26792154 31.24084329 -37.55493164 31.20617676 C-40.8465642 31.15753899 -44.13751643 31.13493778 -47.42944336 31.11730957 C-48.44841705 31.09666443 -49.46739075 31.07601929 -50.51724243 31.05474854 C-57.94115332 31.05241346 -61.61304246 32.47821796 -66.84619141 37.94104004 Z M-86.51538086 312.50793457 C-87.20202069 315.59164231 -87.20202069 315.59164231 -87.00366211 319.02355957 C-86.98754883 320.2739502 -86.97143555 321.52434082 -86.95483398 322.81262207 C-86.91293945 324.1145752 -86.87104492 325.41652832 -86.82788086 326.75793457 C-86.80532227 328.07535645 -86.78276367 329.39277832 -86.75952148 330.75012207 C-86.7005768 334.00386861 -86.61833139 337.25533128 -86.51538086 340.50793457 C-84.53538086 341.49793457 -82.55538086 342.48793457 -80.51538086 343.50793457 C-80.51538086 331.95793457 -80.51538086 320.40793457 -80.51538086 308.50793457 C-83.06272396 308.50793457 -84.85075168 310.88430773 -86.51538086 312.50793457 Z " fill="#294368" transform="translate(260.515380859375,23.4920654296875)"/>
<path d="M0 0 C0.67224609 0.17273438 1.34449219 0.34546875 2.03710938 0.5234375 C2.71451172 0.70132812 3.39191406 0.87921875 4.08984375 1.0625 C21.84760486 5.69934207 42.35172206 6.38262224 59.65234375 -0.6875 C65.542921 -2.86919528 70.18348858 -0.64111293 75.76171875 1.72265625 C76.39304214 1.98809738 77.02436554 2.25353851 77.67481995 2.52702332 C79.71207802 3.38593983 81.74497376 4.25458629 83.77734375 5.125 C85.18117066 5.72312981 86.58506093 6.32111092 87.98901367 6.91894531 C90.07811973 7.80952711 92.16662191 8.70142434 94.25358582 9.59701538 C98.06107226 11.23053383 101.87941327 12.82900448 105.71875 14.38671875 C118.45722926 19.6311393 127.96645714 26.18311595 134.02734375 39.0625 C140.25006198 57.7306547 136.02734375 78.38453714 136.02734375 98.0625 C65.07734375 98.0625 -5.87265625 98.0625 -78.97265625 98.0625 C-78.97265625 39.30941358 -78.97265625 39.30941358 -72.34765625 30.3125 C-71.73664063 29.45140625 -71.125625 28.5903125 -70.49609375 27.703125 C-64.81177031 21.75482369 -57.63471911 18.16157561 -50.16015625 14.9375 C-49.32846924 14.57350098 -48.49678223 14.20950195 -47.63989258 13.83447266 C-45.79008548 13.02680333 -43.9386803 12.22278707 -42.0859375 11.421875 C-39.23928879 10.17892174 -36.40556811 8.9099531 -33.57524109 7.63034058 C-31.06419362 6.49854988 -28.54651448 5.3820475 -26.02749634 4.26812744 C-24.19026263 3.45089188 -22.36006358 2.61790034 -20.5300293 1.78466797 C-19.39090088 1.28596191 -18.25177246 0.78725586 -17.078125 0.2734375 C-16.06903076 -0.17725098 -15.05993652 -0.62793945 -14.02026367 -1.09228516 C-9.18407887 -2.433539 -4.76120225 -1.24715026 0 0 Z " fill="#4FA5E9" transform="translate(100.97265625,376.9375)"/>
<path d="M0 0 C22.82428416 -1.48394946 22.82428416 -1.48394946 28.6875 3.5625 C30.13035687 5.03644176 31.56793324 6.51557248 33 8 C57.52943921 25.44566875 88.94771179 30.14854088 118.25 30.1875 C119.27232727 30.18926743 119.27232727 30.18926743 120.31530762 30.19107056 C128.39767063 30.18948902 136.34909302 29.91368277 144.38647461 29.03515625 C147 29 147 29 150.3125 30.8125 C152.68814809 35.29983529 152.86875859 39.02655631 152 44 C148.47892055 50.91640607 143.83597018 53.16242747 137 56 C135.43822554 57.56177446 135.81845522 59.13436423 135.75390625 61.3046875 C135.72264648 62.192771 135.69138672 63.08085449 135.65917969 63.99584961 C135.62727539 64.94596924 135.59537109 65.89608887 135.5625 66.875 C134.60587385 89.39902632 128.14247864 108.67178154 112 125 C94.63649627 140.32211883 74.15059317 146.06350433 51.39208984 145.17041016 C32.31916986 143.81167387 15.67239716 132.96230948 2.69921875 119.63671875 C-10.78561086 104.05715833 -15.31928996 84.98287814 -15.67358398 64.86645508 C-15.69106689 64.01591553 -15.7085498 63.16537598 -15.7265625 62.2890625 C-15.73252441 61.53318848 -15.73848633 60.77731445 -15.74462891 59.99853516 C-15.88989951 57.68332168 -15.88989951 57.68332168 -18 55 C-19.78601392 54.17531998 -19.78601392 54.17531998 -21.8125 53.625 C-25.86786976 52.22405408 -28.23505986 50.3514426 -31 47 C-31.96306898 44.11079306 -32.1955936 42.07752119 -32.25 39.0625 C-32.28867187 37.78052734 -32.28867187 37.78052734 -32.328125 36.47265625 C-31.93876562 33.53855522 -30.93350171 32.19299799 -29 30 C-23.85070467 30.73561362 -20.21019946 33.06638013 -15.81640625 35.72265625 C-12.53194515 37.21228008 -10.56541704 37.53265315 -7 37 C-4.09774126 34.8013695 -3.11190064 33.54935438 -2.37817383 29.94726562 C-2.32169678 28.77873047 -2.26521973 27.61019531 -2.20703125 26.40625 C-2.13419922 25.12878906 -2.06136719 23.85132813 -1.98632812 22.53515625 C-1.92760014 21.19013822 -1.86966532 19.84508535 -1.8125 18.5 C-1.67953637 15.86421033 -1.53680111 13.22906644 -1.39453125 10.59375 C-1.34143799 9.42521484 -1.28834473 8.25667969 -1.23364258 7.05273438 C-1.04219781 4.55134939 -0.71609538 2.39213373 0 0 Z " fill="#FED7B6" transform="translate(67,192)"/>
<path d="M0 0 C0.8559375 0.2784375 1.711875 0.556875 2.59375 0.84375 C19.15601904 6.77345126 31.69093218 19.82969346 39.25 35.375 C46.64634902 52.32331848 47.00471059 69.08301506 40.8125 86.4375 C38.24982172 92.82540775 35.0245319 98.42689821 31 104 C30.48953125 104.70769531 29.9790625 105.41539062 29.453125 106.14453125 C19.0442728 119.20712547 2.21707252 126.67817244 -14 129 C-31.97683869 130.65414923 -48.56193354 125.90508053 -62.8125 114.625 C-75.12743372 104.0263717 -84.28011016 90.3901898 -86.8125 74 C-86.90579213 72.66846682 -86.96380723 71.3343066 -87 70 C-87.05027344 68.98808594 -87.10054687 67.97617188 -87.15234375 66.93359375 C-87.667553 48.48910266 -82.69173565 31.69371478 -70 18 C-51.54361868 -0.93869094 -25.40045293 -8.87485705 0 0 Z " fill="#48C060" transform="translate(309,109)"/>
<path d="M0 0 C0.87720703 -0.00773437 1.75441406 -0.01546875 2.65820312 -0.0234375 C22.30183043 0.0344656 40.89791715 7.77164507 54.84765625 21.51171875 C56.19150391 22.86716797 56.19150391 22.86716797 57.5625 24.25 C58.67431641 25.31154297 58.67431641 25.31154297 59.80859375 26.39453125 C68.32473287 35.07667698 73.88018185 47.47352099 76.5625 59.25 C76.80323242 60.1932312 76.80323242 60.1932312 77.04882812 61.15551758 C78.35827499 66.52841615 78.83467087 71.48663752 78.7578125 77.00390625 C78.7549826 77.79022934 78.75215271 78.57655243 78.74923706 79.38670349 C78.73817289 81.86213359 78.71309591 84.33718199 78.6875 86.8125 C78.67745234 88.5058541 78.66832965 90.19921395 78.66015625 91.89257812 C78.63827898 96.01186253 78.60384718 100.13086689 78.5625 104.25 C73.70811784 106.67719108 66.55323038 105.49569217 61.125 105.5 C59.99745804 105.50101212 59.99745804 105.50101212 58.84713745 105.50204468 C47.16220647 105.48533117 35.98173245 104.90836109 24.5625 102.25 C23.48186279 102.01651855 23.48186279 102.01651855 22.37939453 101.77832031 C8.44844647 98.707075 -5.53491902 93.18505399 -17.4375 85.25 C-17.4375 84.59 -17.4375 83.93 -17.4375 83.25 C-16.27476563 83.09144531 -15.11203125 82.93289062 -13.9140625 82.76953125 C8.88202445 79.51020241 44.58091141 72.72222577 60.5625 54.25 C61.51507003 51.78011665 61.51507003 51.78011665 61.5625 49.25 C60.9025 48.26 60.2425 47.27 59.5625 46.25 C55.08652288 45.52537906 52.54417091 46.52680925 48.87231445 49.09448242 C48.31632568 49.49642822 47.76033691 49.89837402 47.1875 50.3125 C30.5775498 61.57886168 10.23022479 67.91547204 -9.4375 71.25 C-10.19820801 71.38003418 -10.95891602 71.51006836 -11.74267578 71.64404297 C-26.01896485 74.00075489 -40.16500386 74.68247642 -54.60668945 74.78369141 C-55.30262711 74.79385284 -55.99856476 74.80401428 -56.71559143 74.81448364 C-58.62114154 74.84210845 -60.52689901 74.8541634 -62.43261719 74.86523438 C-65.35815047 75.043057 -65.35815047 75.043057 -67.31079102 76.33325195 C-69.03723404 79.27026261 -68.98849273 81.94178609 -69.16796875 85.32421875 C-69.208116 86.0080513 -69.24826324 86.69188385 -69.28962708 87.3964386 C-69.41457949 89.57629554 -69.52002656 91.75659861 -69.625 93.9375 C-69.70639794 95.41738891 -69.78906536 96.89720858 -69.87304688 98.37695312 C-70.07592344 102.00061509 -70.26132309 105.62493074 -70.4375 109.25 C-72.0875 108.59 -73.7375 107.93 -75.4375 107.25 C-75.51299162 102.29194276 -75.56671778 97.33423701 -75.60229492 92.37573242 C-75.61716256 90.69728757 -75.63746277 89.01887995 -75.66381836 87.34057617 C-75.88652348 72.76867416 -75.59820097 57.55088504 -68.75 44.3125 C-68.40477295 43.61286133 -68.0595459 42.91322266 -67.70385742 42.19238281 C-64.6739414 36.26556812 -60.97776372 31.12584843 -56.4375 26.25 C-55.633125 25.38375 -54.82875 24.5175 -54 23.625 C-53.154375 22.84125 -52.30875 22.0575 -51.4375 21.25 C-50.47070312 20.32767578 -50.47070312 20.32767578 -49.484375 19.38671875 C-35.71231332 6.60181533 -18.76017115 -0.16468329 0 0 Z " fill="#495060" transform="translate(124.4375,105.75)"/>
<path d="M0 0 C0.8559375 0.2784375 1.711875 0.556875 2.59375 0.84375 C19.15601904 6.77345126 31.69093218 19.82969346 39.25 35.375 C46.64634902 52.32331848 47.00471059 69.08301506 40.8125 86.4375 C38.24982172 92.82540775 35.0245319 98.42689821 31 104 C30.48953125 104.70769531 29.9790625 105.41539062 29.453125 106.14453125 C19.0442728 119.20712547 2.21707252 126.67817244 -14 129 C-31.97683869 130.65414923 -48.56193354 125.90508053 -62.8125 114.625 C-75.12743372 104.0263717 -84.28011016 90.3901898 -86.8125 74 C-86.90579213 72.66846682 -86.96380723 71.3343066 -87 70 C-87.05027344 68.98808594 -87.10054687 67.97617188 -87.15234375 66.93359375 C-87.667553 48.48910266 -82.69173565 31.69371478 -70 18 C-51.54361868 -0.93869094 -25.40045293 -8.87485705 0 0 Z M-62.68212891 27.42285156 C-72.02844511 38.60795766 -75.68820344 51.67395401 -75.34765625 66.125 C-73.94451596 81.76449628 -67.52562626 94.42476271 -56 105 C-43.49972683 114.40357774 -29.60676638 119.06792409 -14 117 C-4.57353743 115.16095627 4.19670155 111.64216189 12 106 C12.63164062 105.55011719 13.26328125 105.10023438 13.9140625 104.63671875 C22.60945389 97.83745896 27.35569069 88.19267761 31 78 C31.2475 77.32453125 31.495 76.6490625 31.75 75.953125 C35.48503264 63.81426892 33.01770338 50.16466408 27.8125 38.875 C20.60602277 25.47310354 9.47804437 15.59953784 -5.1015625 11.02734375 C-26.61533867 5.50769951 -47.60544851 10.9552155 -62.68212891 27.42285156 Z " fill="#2A4569" transform="translate(309,109)"/>
<path d="M0 0 C55.77 0 111.54 0 169 0 C169 7.26 169 14.52 169 22 C113.23 22 57.46 22 0 22 C0 14.74 0 7.48 0 0 Z " fill="#465572" transform="translate(261,37)"/>
<path d="M0 0 C0.99 0.99 0.99 0.99 2 2 C-4.28779789 5.31333063 -10.59414527 8.27997153 -17.18530273 10.92749023 C-30.90229993 16.46434431 -41.19246992 23.20643085 -47.65234375 37.06640625 C-51.87705729 48.36946569 -50.7870221 60.92049571 -50.8125 72.8125 C-50.83567257 75.35483889 -50.86104357 77.89715875 -50.88867188 80.43945312 C-50.95524517 86.62673526 -50.97658407 92.81180745 -51 99 C-58.92 99 -66.84 99 -75 99 C-75.06910601 91.77714221 -75.12877155 84.55544526 -75.16479492 77.33251953 C-75.17982224 74.87870381 -75.2002498 72.42491467 -75.22631836 69.97119141 C-75.2629682 66.43124808 -75.27978755 62.89166186 -75.29296875 59.3515625 C-75.31619453 57.722827 -75.31619453 57.722827 -75.33988953 56.06118774 C-75.34188696 46.89068011 -73.91320943 38.77102515 -68.375 31.25 C-67.76398438 30.38890625 -67.15296875 29.5278125 -66.5234375 28.640625 C-60.83911406 22.69232369 -53.66206286 19.09907561 -46.1875 15.875 C-45.35581299 15.51100098 -44.52412598 15.14700195 -43.66723633 14.77197266 C-41.81742923 13.96430333 -39.96602405 13.16028707 -38.11328125 12.359375 C-35.26663254 11.11642174 -32.43291186 9.8474531 -29.60258484 8.56784058 C-27.09153737 7.43604988 -24.57385823 6.3195475 -22.05484009 5.20562744 C-20.21760638 4.38839188 -18.38740733 3.55540034 -16.55737305 2.72216797 C-15.41824463 2.22346191 -14.27911621 1.72475586 -13.10546875 1.2109375 C-12.09637451 0.76024902 -11.08728027 0.30956055 -10.04760742 -0.15478516 C-6.32046892 -1.18845923 -3.7435259 -0.88086277 0 0 Z " fill="#71BBEE" transform="translate(97,376)"/>
<path d="M0 0 C4.85963179 0.60745397 8.7405518 2.72758967 13 5 C12.67 5.66 12.34 6.32 12 7 C11.10047071 12.38578931 11.73813371 16.25432614 14.6875 20.875 C18.41480589 25.90598799 22.29702143 27.73209338 28 30 C28.01401855 30.87398437 28.01401855 30.87398437 28.02832031 31.765625 C28.50088349 55.33818802 32.54779983 76.10901427 49 94 C49.69867188 94.77859375 50.39734375 95.5571875 51.1171875 96.359375 C55.78278464 101.30723246 60.68568914 105.00703507 66.51953125 108.4921875 C68.79792588 109.87716439 70.89782614 111.3633425 73 113 C56.45760207 111.87210923 41.25134361 100.29461694 30.62109375 88.3203125 C18.03446961 72.6030052 13.80387001 54.85466291 13.37744141 35.01879883 C13.35472168 34.15279053 13.33200195 33.28678223 13.30859375 32.39453125 C13.29626709 31.61956299 13.28394043 30.84459473 13.27124023 30.04614258 C13.11185191 27.69051729 13.11185191 27.69051729 11 25 C9.21398608 24.17531998 9.21398608 24.17531998 7.1875 23.625 C3.13213024 22.22405408 0.76494014 20.3514426 -2 17 C-2.96306898 14.11079306 -3.1955936 12.07752119 -3.25 9.0625 C-3.27578125 8.20785156 -3.3015625 7.35320312 -3.328125 6.47265625 C-2.93876562 3.53855522 -1.93350171 2.19299799 0 0 Z " fill="#E5BA9D" transform="translate(38,222)"/>
<path d="M0 0 C0 7.26 0 14.52 0 22 C-10.88896173 25.79847502 -20.8651106 28.40504035 -32.4375 28.4375 C-33.37819336 28.44064209 -34.31888672 28.44378418 -35.28808594 28.44702148 C-45.2051046 28.28151606 -56.03757459 26.4812127 -65 22 C-65 15.4 -65 8.8 -65 2 C-62.42838542 2.74869792 -59.85677083 3.49739583 -57.28515625 4.24609375 C-36.11848653 9.10360535 -19.53628703 0 0 0 Z " fill="#EAC295" transform="translate(162,342)"/>
<path d="M0 0 C0 0.66 0 1.32 0 2 C-1.64453125 3.47265625 -1.64453125 3.47265625 -3.8125 5.0625 C-4.52019531 5.58972656 -5.22789062 6.11695312 -5.95703125 6.66015625 C-8 8 -8 8 -11 9 C-12.05795324 10.86540533 -12.05795324 10.86540533 -13 13 C-13.91333155 14.22670338 -14.85248311 15.43447773 -15.8125 16.625 C-25.92286294 29.99040662 -28.27427316 44.5139424 -26.71875 60.9765625 C-24.44820026 76.12811556 -16.42712796 89.00414867 -5 99 C-3.04429034 100.43252618 -1.0572564 101.71421475 1 103 C1 103.33 1 103.66 1 104 C-8.76368285 104.67946961 -17.80144399 98.42012578 -24.9375 92.25 C-35.01102133 82.4431307 -41.34469658 69.79990442 -42.203125 55.65234375 C-42.41562416 38.81178535 -38.149096 25.68528604 -26.421875 13.2890625 C-19.85434727 7.08168952 -9.67794121 -1.24876661 0 0 Z " fill="#58DD6F" transform="translate(276,120)"/>
<path d="M0 0 C2 2 2 2 2.38969421 4.81277466 C1.89242552 8.87982859 0.63853658 10.11580193 -2.23510742 12.99560547 C-3.15994431 13.93612762 -4.08478119 14.87664978 -5.03764343 15.84567261 C-6.05956711 16.85353902 -7.0821929 17.86069396 -8.10546875 18.8671875 C-9.14819331 19.91141484 -10.18995351 20.95660596 -11.23078918 22.00271606 C-13.41303568 24.18929124 -15.60548528 26.36492446 -17.8059082 28.53320312 C-20.62484574 31.31233551 -23.41852137 34.11534644 -26.20522594 36.92675591 C-28.35188341 39.08759851 -30.51051702 41.23614204 -32.67305946 43.38107681 C-33.7080104 44.41018078 -34.73940674 45.44287243 -35.76714134 46.4791832 C-37.20522166 47.92525747 -38.66120823 49.35345767 -40.11791992 50.78076172 C-40.94176682 51.59761444 -41.76561371 52.41446716 -42.61442566 53.256073 C-45 55 -45 55 -47.6481781 55.37823486 C-52.6379723 54.57574462 -55.98701345 49.82069835 -59.40429688 46.35742188 C-60.87086597 44.87916697 -62.36655164 43.43575 -63.8671875 41.9921875 C-65.259375 40.6 -65.259375 40.6 -66.6796875 39.1796875 C-67.53288574 38.33132324 -68.38608398 37.48295898 -69.26513672 36.60888672 C-71 34 -71 34 -70.89501953 30.80126953 C-70 28 -70 28 -68 26 C-65.375 25.4375 -65.375 25.4375 -62 26 C-59.89773206 27.47968961 -58.08046075 29.10784005 -56.22265625 30.8828125 C-54.31313094 32.70172764 -52.36632503 34.4214532 -50.36108398 36.13232422 C-49.73145248 36.67009491 -49.10182098 37.2078656 -48.45310974 37.76193237 C-47.73382042 38.37477585 -47.73382042 38.37477585 -47 39 C-46.51584625 38.51362564 -46.0316925 38.02725128 -45.53286743 37.52613831 C-40.50733689 32.4785372 -35.47833167 27.43441761 -30.44726562 22.39233398 C-28.56843574 20.50846572 -26.69050305 18.62370222 -24.81347656 16.73803711 C-22.12017685 14.03265025 -19.42369976 11.33046659 -16.7265625 8.62890625 C-15.88380768 7.78099014 -15.04105286 6.93307404 -14.17276001 6.0594635 C-13.39210175 5.27872971 -12.61144348 4.49799591 -11.80712891 3.69360352 C-11.11873932 3.00299332 -10.43034973 2.31238312 -9.72109985 1.60084534 C-6.37048436 -1.51566018 -4.33797624 -0.99411956 0 0 Z " fill="#284467" transform="translate(322,145)"/>
<path d="M0 0 C-1.34191406 0.81791016 -1.34191406 0.81791016 -2.7109375 1.65234375 C-26.635304 16.46187527 -38.18648655 36.27006264 -45 63 C-45.24230347 64.09574341 -45.24230347 64.09574341 -45.48950195 65.21362305 C-46.74555258 70.80761293 -46.74555258 70.80761293 -49.5625 72.9375 C-50.366875 73.288125 -51.17125 73.63875 -52 74 C-53.91387427 75.91387427 -53.38009824 79.32561763 -53.53515625 81.87890625 C-53.57813339 82.5655687 -53.62111053 83.25223114 -53.66539001 83.95970154 C-53.80211912 86.1603912 -53.93237573 88.36141087 -54.0625 90.5625 C-54.15387195 92.05145843 -54.24566333 93.54039118 -54.33789062 95.02929688 C-54.56346771 98.6859121 -54.78324029 102.34285032 -55 106 C-56.65 105.34 -58.3 104.68 -60 104 C-60.07549162 99.04194276 -60.12921778 94.08423701 -60.16479492 89.12573242 C-60.17966256 87.44728757 -60.19996277 85.76887995 -60.22631836 84.09057617 C-60.44902348 69.51867416 -60.16070097 54.30088504 -53.3125 41.0625 C-52.96727295 40.36286133 -52.6220459 39.66322266 -52.26635742 38.94238281 C-49.2364414 33.01556812 -45.54026372 27.87584843 -41 23 C-40.195625 22.13375 -39.39125 21.2675 -38.5625 20.375 C-37.716875 19.59125 -36.87125 18.8075 -36 18 C-35.03320312 17.07767578 -35.03320312 17.07767578 -34.046875 16.13671875 C-26.71441042 9.32983292 -10.64550271 -4.13991772 0 0 Z " fill="#565F6C" transform="translate(109,109)"/>
<path d="M0 0 C0.79225983 0.00247742 1.58451965 0.00495483 2.40078735 0.00750732 C3.2350676 0.00239639 4.06934784 -0.00271454 4.9289093 -0.00798035 C7.69573068 -0.02191763 10.46230412 -0.02091647 13.22915649 -0.01861572 C15.14725335 -0.02250044 17.06534935 -0.02683464 18.98344421 -0.03160095 C23.00767808 -0.03907211 27.03182423 -0.03876546 31.05606079 -0.0335083 C36.21918655 -0.02771309 41.38195366 -0.04464158 46.5450201 -0.06785297 C50.50750334 -0.08256803 54.46989976 -0.08346505 58.43240547 -0.08034325 C60.33624545 -0.0808576 62.24009015 -0.08611666 64.14390373 -0.09615517 C66.80398899 -0.10845895 69.46337006 -0.10176455 72.1234436 -0.09014893 C73.308797 -0.10161453 73.308797 -0.10161453 74.51809692 -0.11331177 C79.8285051 -0.06192346 79.8285051 -0.06192346 82.31217957 1.65309143 C83.80965081 4.05740036 83.80100515 5.50475286 83.32681274 8.28216553 C81.80007935 10.41096497 81.80007935 10.41096497 79.32681274 12.28216553 C76.52461953 12.67174515 74.11688777 12.81970602 71.31704712 12.78387451 C70.51334183 12.7892775 69.70963654 12.79468048 68.88157654 12.80024719 C66.22752952 12.81274442 63.57456521 12.79623741 60.92056274 12.77825928 C59.07498111 12.77841424 57.22939915 12.77990281 55.38381958 12.78266907 C51.51685185 12.7840535 47.65025483 12.7714876 43.78335571 12.74871826 C38.82659972 12.72033348 33.87045971 12.72307035 28.91365814 12.73580837 C25.10294331 12.74276335 21.29237085 12.73497835 17.48167419 12.72255135 C15.65403286 12.71803508 13.82637624 12.71770158 11.99873352 12.72161674 C9.4443631 12.7245272 6.89084153 12.70803042 4.33657837 12.68621826 C3.58113235 12.69071991 2.82568634 12.69522156 2.04734802 12.69985962 C-1.08558935 12.65540909 -3.35535038 12.44929693 -6.15036011 10.97956848 C-7.67318726 9.28216553 -7.67318726 9.28216553 -8.04818726 5.71966553 C-7.42301692 -0.01106253 -5.26490791 0.05166102 0 0 Z " fill="#2E486D" transform="translate(333.6731872558594,286.71783447265625)"/>
<path d="M0 0 C0.69948257 -0.00365067 1.39896515 -0.00730133 2.11964417 -0.01106262 C4.43149093 -0.01916814 6.74263684 -0.00556005 9.05444336 0.0090332 C10.65962219 0.00955175 12.26480166 0.00903425 13.86997986 0.00752258 C17.23340337 0.0076123 20.59658716 0.01804204 23.95996094 0.03613281 C28.27676212 0.05883835 32.59321354 0.05936081 36.91005802 0.05261517 C40.22398502 0.04927828 43.53783188 0.05589964 46.8517437 0.0657444 C48.44379698 0.06960018 50.03585917 0.07074306 51.62791634 0.06915855 C53.84977422 0.06878881 56.07117879 0.08138146 58.29296875 0.09765625 C59.55855118 0.10226364 60.82413361 0.10687103 62.12806702 0.11161804 C65.08178711 0.37231445 65.08178711 0.37231445 67.08178711 2.37231445 C67.45678711 5.80981445 67.45678711 5.80981445 67.08178711 9.37231445 C64.78024088 11.80917488 63.34953845 12.33854247 60.00817871 12.75999451 C58.80334839 12.76539749 57.59851807 12.77080048 56.35717773 12.77636719 C55.35644478 12.78666206 55.35644478 12.78666206 54.335495 12.79716492 C52.13612425 12.81542626 49.9374672 12.81159718 47.73803711 12.8059082 C46.20633716 12.81046998 44.67463926 12.81577554 43.14294434 12.8217926 C39.93513668 12.83072206 36.72757802 12.82830217 33.51977539 12.81835938 C29.41036404 12.80686267 25.30181109 12.82709179 21.19251251 12.85627651 C18.03031971 12.87462694 14.86833314 12.87434856 11.70610046 12.86863899 C10.19104304 12.86848567 8.67597173 12.87453901 7.16096497 12.88693047 C5.0422281 12.90182009 2.92508371 12.89118171 0.80639648 12.87402344 C-0.39843384 12.87385727 -1.60326416 12.8736911 -2.84460449 12.8735199 C-6.51794226 12.27451812 -7.70116624 11.30914344 -9.91821289 8.37231445 C-10.39907497 5.55583656 -10.42867454 4.13177901 -8.82325745 1.74324036 C-5.93727362 -0.3335982 -3.52337273 -0.00175121 0 0 Z " fill="#2F496E" transform="translate(248.918212890625,346.627685546875)"/>
<path d="M0 0 C0.99435562 -0.00622879 1.98871124 -0.01245758 3.01319885 -0.01887512 C4.62109535 -0.0050605 4.62109535 -0.0050605 6.26147461 0.0090332 C7.36228867 0.0085347 8.46310272 0.00803619 9.59727478 0.00752258 C11.92489425 0.00986389 14.25251622 0.01959568 16.58007812 0.03613281 C20.15314228 0.0597439 23.72546157 0.05669169 27.29858398 0.05004883 C29.557052 0.05562475 31.81551685 0.06273408 34.07397461 0.0715332 C35.68490746 0.07016609 35.68490746 0.07016609 37.3283844 0.06877136 C38.81518959 0.08306938 38.81518959 0.08306938 40.33203125 0.09765625 C41.20678604 0.10226364 42.08154083 0.10687103 42.98280334 0.11161804 C45.10131836 0.37231445 45.10131836 0.37231445 47.10131836 2.37231445 C47.66654623 8.58982103 47.66654623 8.58982103 45.87449646 11.07070923 C43.58718443 12.74971558 42.2412813 12.75241805 39.41796875 12.76049805 C37.99618065 12.77468277 37.99618065 12.77468277 36.54566956 12.78915405 C35.52376022 12.78308136 34.50185089 12.77700867 33.44897461 12.77075195 C31.87145668 12.77505722 31.87145668 12.77505722 30.2620697 12.77944946 C28.03701235 12.78149176 25.81193711 12.77595041 23.58691406 12.76342773 C20.18049929 12.74739297 16.77527398 12.7632632 13.36889648 12.7824707 C11.20808657 12.78048799 9.0472774 12.77664373 6.88647461 12.77075195 C5.35664696 12.77986099 5.35664696 12.77986099 3.7959137 12.78915405 C2.8449028 12.77969757 1.89389191 12.77024109 0.9140625 12.76049805 C0.07927872 12.75811127 -0.75550507 12.75572449 -1.61558533 12.75326538 C-4.45405351 12.27964669 -5.83701845 11.35838096 -7.89868164 9.37231445 C-8.35491986 6.24382377 -8.5913155 4.31624239 -6.67750549 1.70808411 C-4.33401393 -0.05171066 -2.91515034 -0.00209567 0 0 Z " fill="#2D476C" transform="translate(404.898681640625,221.627685546875)"/>
<path d="M0 0 C1.45677406 -0.01429802 1.45677406 -0.01429802 2.94297791 -0.02888489 C3.99505936 -0.02797348 5.04714081 -0.02706207 6.13110352 -0.02612305 C7.2087648 -0.03040817 8.28642609 -0.0346933 9.39674377 -0.03910828 C11.67903947 -0.04485906 13.96135351 -0.04534636 16.24365234 -0.04101562 C19.74226058 -0.03785782 23.24002194 -0.06129881 26.73852539 -0.08666992 C28.95271703 -0.08894298 31.16691095 -0.08964638 33.38110352 -0.08862305 C34.95618935 -0.10243767 34.95618935 -0.10243767 36.56309509 -0.11653137 C37.53742996 -0.11030258 38.51176483 -0.10407379 39.515625 -0.09765625 C40.37341049 -0.09828568 41.23119598 -0.0989151 42.11497498 -0.0995636 C44.81264648 0.35774629 45.69326089 1.11137021 47.32250977 3.2746582 C47.87864589 6.3731309 47.66147788 7.74807292 45.95336914 10.40161133 C41.82654049 13.33971725 37.73692009 12.84615915 32.79125977 12.8059082 C31.76319214 12.80973511 30.73512451 12.81356201 29.67590332 12.81750488 C27.50389628 12.82022494 25.33185654 12.81285726 23.15991211 12.79614258 C19.83446248 12.77473515 16.51117341 12.79594198 13.18579102 12.8215332 C11.07510916 12.81888994 8.96442865 12.81376501 6.85375977 12.8059082 C5.8588855 12.81400513 4.86401123 12.82210205 3.83898926 12.83044434 C-3.00622193 12.73741533 -3.00622193 12.73741533 -6.34350586 10.43676758 C-7.67749023 8.2746582 -7.67749023 8.2746582 -7.55249023 5.1496582 C-6.13290677 0.48531254 -4.57515384 0.02459717 0 0 Z " fill="#2F496D" transform="translate(375.677490234375,170.725341796875)"/>
<path d="M0 0 C1.4616156 -0.00956978 1.4616156 -0.00956978 2.95275879 -0.01933289 C4.00797729 -0.02044571 5.0631958 -0.02155853 6.15039062 -0.02270508 C7.23042358 -0.02603348 8.31045654 -0.02936188 9.42321777 -0.03279114 C11.70971245 -0.03786008 13.99621455 -0.04019947 16.28271484 -0.04003906 C19.79211517 -0.04222727 23.30120215 -0.06038825 26.81054688 -0.0793457 C29.02799371 -0.0822792 31.24544205 -0.08426429 33.46289062 -0.08520508 C34.51810913 -0.09239059 35.57332764 -0.09957611 36.66052246 -0.10697937 C38.12213806 -0.10236443 38.12213806 -0.10236443 39.61328125 -0.09765625 C40.47328735 -0.09908127 41.33329346 -0.10050629 42.21936035 -0.10197449 C44.30664062 0.14526367 44.30664062 0.14526367 46.30664062 2.14526367 C46.68164062 5.58276367 46.68164062 5.58276367 46.30664062 9.14526367 C43.53478571 11.85688525 41.51861157 12.52335961 37.69335938 12.54931641 C36.33174683 12.56834267 36.33174683 12.56834267 34.94262695 12.5877533 C33.48312622 12.58334984 33.48312622 12.58334984 31.99414062 12.57885742 C30.98826904 12.58409927 29.98239746 12.58934113 28.94604492 12.59474182 C26.82113569 12.60116015 24.69619091 12.59982749 22.57128906 12.59130859 C19.31836819 12.58279437 16.06720071 12.61157042 12.81445312 12.64331055 C10.74934948 12.64492253 8.68424273 12.64434508 6.61914062 12.64135742 C5.64614014 12.6525914 4.67313965 12.66382538 3.6706543 12.67539978 C-3.01419017 12.60631603 -3.01419017 12.60631603 -6.34570312 10.34472656 C-7.69335938 8.14526367 -7.69335938 8.14526367 -7.56835938 4.45776367 C-7.27960938 3.36463867 -6.99085938 2.27151367 -6.69335938 1.14526367 C-4.26830997 -0.06726103 -2.70953143 0.01200943 0 0 Z " fill="#2E486D" transform="translate(405.693359375,120.854736328125)"/>
<path d="M0 0 C0.81416885 -0.00622879 1.62833771 -0.01245758 2.46717834 -0.01887512 C3.77977882 -0.0050605 3.77977882 -0.0050605 5.11889648 0.0090332 C6.47047096 0.00828545 6.47047096 0.00828545 7.84934998 0.00752258 C9.75326748 0.00986247 11.65718812 0.019586 13.56103516 0.03613281 C16.48229479 0.05975223 19.40264361 0.05668989 22.32397461 0.05004883 C24.17228736 0.05562463 26.02059626 0.06273389 27.86889648 0.0715332 C28.7459877 0.0706218 29.62307892 0.06971039 30.52674866 0.06877136 C36.69646079 0.14128501 36.69646079 0.14128501 38.92749023 2.37231445 C39.30249023 5.80981445 39.30249023 5.80981445 38.92749023 9.37231445 C36.44558084 12.19988348 34.82505667 12.38298462 31.04858398 12.77636719 C29.48757969 12.80285287 27.92620864 12.81165145 26.36499023 12.8059082 C25.53668701 12.81115005 24.70838379 12.81639191 23.85498047 12.8217926 C22.10670084 12.82820557 20.35837802 12.82688517 18.61010742 12.81835938 C15.93647472 12.80984307 13.26497477 12.83862859 10.59155273 12.87036133 C8.89103254 12.87197334 7.19050857 12.87139581 5.48999023 12.8684082 C4.69197998 12.87964218 3.89396973 12.89087616 3.07177734 12.90245056 C-0.53740566 12.85716074 -2.64653258 12.69009708 -5.58032227 10.50146484 C-7.07250977 8.37231445 -7.07250977 8.37231445 -7.51000977 5.80981445 C-6.71323915 1.37066386 -4.33570457 -0.00381323 0 0 Z " fill="#30496E" transform="translate(413.072509765625,346.627685546875)"/>
<path d="M0 0 C0.87648193 -0.00287018 1.75296387 -0.00574036 2.65600586 -0.00869751 C4.50863288 -0.01073848 6.36128142 -0.00520628 8.21386719 0.00732422 C11.05192179 0.02337766 13.88855227 0.00747695 16.7265625 -0.01171875 C18.52604481 -0.00973632 20.32552624 -0.00589266 22.125 0 C22.97505615 -0.00607269 23.8251123 -0.01214539 24.70092773 -0.0184021 C30.59532092 0.05207304 30.59532092 0.05207304 32.81811523 1.70004272 C34.0625 3.3984375 34.0625 3.3984375 33.9375 6.9609375 C33.0625 10.3984375 33.0625 10.3984375 30.0625 12.3984375 C27.20809713 12.61867607 24.45365159 12.72646083 21.59765625 12.734375 C20.35307899 12.7443602 20.35307899 12.7443602 19.08335876 12.75454712 C17.32911393 12.76466861 15.57483064 12.76936429 13.82055664 12.76904297 C11.13818894 12.773416 8.45746715 12.80973834 5.77539062 12.84765625 C4.07031812 12.85352459 2.36523781 12.85749387 0.66015625 12.859375 C-0.14099106 12.87374603 -0.94213837 12.88811707 -1.76756287 12.90292358 C-5.38754575 12.87325577 -7.50201942 12.72264413 -10.44750977 10.52978516 C-11.9375 8.3984375 -11.9375 8.3984375 -12.375 5.8359375 C-11.18213784 -0.81000882 -5.59579933 -0.03997568 0 0 Z " fill="#2F486D" transform="translate(250.9375,286.6015625)"/>
<path d="M0 0 C1.28498634 -0.00074776 1.28498634 -0.00074776 2.59593201 -0.00151062 C4.40569378 0.00082886 6.21545887 0.01055004 8.02514648 0.02709961 C10.8015639 0.05072144 13.57702308 0.04765619 16.35351562 0.04101562 C18.11068283 0.04659139 19.86784598 0.05370063 21.625 0.0625 C22.45834366 0.06158859 23.29168732 0.06067719 24.15028381 0.05973816 C30.01506029 0.13224779 30.01506029 0.13224779 32.24609375 2.36328125 C32.62109375 5.80078125 32.62109375 5.80078125 32.24609375 9.36328125 C29.79752802 12.10253528 28.23363506 12.36464351 24.55078125 12.76733398 C23.07442314 12.79380109 21.5976779 12.80262196 20.12109375 12.796875 C19.33718262 12.80211685 18.55327148 12.8073587 17.74560547 12.8127594 C16.09148338 12.81917065 14.43731565 12.81785418 12.78320312 12.80932617 C10.25438254 12.80080917 7.72781665 12.82959766 5.19921875 12.86132812 C3.58984443 12.86294014 1.98046611 12.86236259 0.37109375 12.859375 C-0.76030029 12.87622597 -0.76030029 12.87622597 -1.91455078 12.89341736 C-5.43023922 12.84680406 -7.39055597 12.63733177 -10.234375 10.49243164 C-11.75390625 8.36328125 -11.75390625 8.36328125 -12.19140625 5.80078125 C-11.00897666 -0.78704073 -5.5583943 -0.0615785 0 0 Z " fill="#2F496D" transform="translate(342.75390625,346.63671875)"/>
<path d="M0 0 C0.96292969 -0.01998047 1.92585938 -0.03996094 2.91796875 -0.06054688 C3.84222656 -0.05990234 4.76648438 -0.05925781 5.71875 -0.05859375 C6.9862207 -0.06137329 6.9862207 -0.06137329 8.27929688 -0.06420898 C10.5 0.4375 10.5 0.4375 12.30273438 2.30834961 C13.5 4.4375 13.5 4.4375 13.4375 7 C12.23769426 10.11949493 11.44155486 10.82675779 8.5 12.4375 C5.4930617 12.87922055 2.53413015 12.85612168 -0.5 12.8125 C-1.30695313 12.82410156 -2.11390625 12.83570313 -2.9453125 12.84765625 C-6.4771062 12.83017212 -8.87537611 12.76665466 -12.03515625 11.1015625 C-13.5 9.4375 -13.5 9.4375 -13.9375 6.4375 C-12.80435552 -1.33263359 -6.35771522 -0.04681049 0 0 Z " fill="#2F496E" transform="translate(439.5,286.5625)"/>
<path d="M0 0 C0.92425781 -0.00386719 1.84851563 -0.00773438 2.80078125 -0.01171875 C4.24517578 0.00568359 4.24517578 0.00568359 5.71875 0.0234375 C6.68167969 0.01183594 7.64460938 0.00023437 8.63671875 -0.01171875 C9.56097656 -0.00785156 10.48523438 -0.00398437 11.4375 0 C12.28248047 0.00338379 13.12746094 0.00676758 13.99804688 0.01025391 C16.69848164 0.4822956 17.58386067 1.23266399 19.21875 3.3984375 C19.78152906 6.53392085 19.57061078 7.87591945 17.78515625 10.52734375 C13.92090547 13.344659 10.38068772 12.98281646 5.71875 12.8984375 C4.43677734 12.92164063 4.43677734 12.92164063 3.12890625 12.9453125 C-3.08433233 12.90654034 -3.08433233 12.90654034 -6.34765625 10.52734375 C-8.13311078 7.87591945 -8.34402906 6.53392085 -7.78125 3.3984375 C-5.46938029 0.33585334 -3.75497318 0.01503708 0 0 Z " fill="#2F496D" transform="translate(363.78125,221.6015625)"/>
<path d="M0 0 C1.753125 0.474375 3.50625 0.94875 5.3125 1.4375 C6.29863281 1.70433594 7.28476563 1.97117187 8.30078125 2.24609375 C10.21517526 2.78079425 12.11433615 3.37144538 14 4 C14 10.6 14 17.2 14 24 C2.25 21.125 2.25 21.125 0 20 C0 13.4 0 6.8 0 0 Z " fill="#D5AB81" transform="translate(97,344)"/>
<path d="M0 0 C1.06347656 0.00386719 2.12695312 0.00773437 3.22265625 0.01171875 C5.9375 0.3125 5.9375 0.3125 7.9375 2.3125 C8.60324776 8.4151878 8.60324776 8.4151878 6.5 11.25 C2.63543627 12.85238008 -0.94497738 12.99245786 -5.0625 12.3125 C-7.625 10.625 -7.625 10.625 -9.0625 8.3125 C-9.54826877 5.46728293 -9.58838358 4.06018482 -7.9140625 1.6796875 C-5.2639462 -0.27714943 -3.25615896 -0.05143386 0 0 Z " fill="#30496E" transform="translate(308.0625,286.6875)"/>
<path d="M0 0 C0.96808594 -0.01675781 1.93617188 -0.03351563 2.93359375 -0.05078125 C5.5625 0.3125 5.5625 0.3125 7.37890625 1.6796875 C8.5625 3.3125 8.5625 3.3125 9.0625 5.75 C8.5625 8.3125 8.5625 8.3125 6.5 10.625 C2.78973322 12.75642985 0.78095891 12.99046661 -3.4375 12.3125 C-6.4375 10.125 -6.4375 10.125 -8.4375 7.3125 C-8.29637096 1.24395113 -5.61763375 0.02238101 0 0 Z " fill="#324B70" transform="translate(388.4375,346.6875)"/>
<path d="M0 0 C0.86625 -0.01933594 1.7325 -0.03867188 2.625 -0.05859375 C5 0.4375 5 0.4375 6.81640625 2.3046875 C8 4.4375 8 4.4375 7.9375 7 C6.76080551 10.05940567 5.9343683 10.97031585 3 12.4375 C-0.65177642 12.82876176 -3.08586365 12.85940908 -6.4375 11.3125 C-8 9.4375 -8 9.4375 -8.4375 6.4375 C-7.66123997 1.11457406 -5.1434004 0.00765387 0 0 Z " fill="#304A6E" transform="translate(445,170.5625)"/>
<path d="M0 0 C1.31291016 -0.02513672 1.31291016 -0.02513672 2.65234375 -0.05078125 C5.5007451 0.37855639 6.36614153 1.02515213 8.0625 3.3125 C8.64256212 6.54427469 8.35518598 7.86127578 6.5625 10.625 C3.51530554 12.68185626 1.58757135 12.89801802 -2.02734375 12.6953125 C-3.9375 12.3125 -3.9375 12.3125 -6.5 10.6875 C-7.9375 8.3125 -7.9375 8.3125 -7.8125 5.1875 C-6.36329445 0.42582463 -4.67361779 0.02058862 0 0 Z " fill="#324C70" transform="translate(375.9375,120.6875)"/>
</svg>
